<mxfile host="app.diagrams.net" agent="Mozilla/5.0 (Windows NT 10.0; Win64; x64) AppleWebKit/537.36 (KHTML, like Gecko) Chrome/137.0.0.0 Safari/537.36" version="27.1.4">
  <diagram name="PÃ¡gina-1" id="fMsb-PGtQ3U2-kFDVf-I">
    <mxGraphModel grid="1" page="1" gridSize="10" guides="1" tooltips="1" connect="1" arrows="1" fold="1" pageScale="1" pageWidth="827" pageHeight="1169" math="0" shadow="0">
      <root>
        <mxCell id="0" />
        <mxCell id="1" parent="0" />
        <mxCell id="oMV7Vg-Eyt8YEyAx2Hoa-14" value=":Controller" style="html=1;whiteSpace=wrap;" vertex="1" parent="1">
          <mxGeometry x="230.5" y="70" width="110" height="50" as="geometry" />
        </mxCell>
        <mxCell id="oMV7Vg-Eyt8YEyAx2Hoa-15" value="Object" style="html=1;whiteSpace=wrap;" vertex="1" parent="1">
          <mxGeometry x="510.5" y="80" width="110" height="50" as="geometry" />
        </mxCell>
        <mxCell id="oMV7Vg-Eyt8YEyAx2Hoa-16" value=": Usuario" style="html=1;whiteSpace=wrap;" vertex="1" parent="1">
          <mxGeometry x="500.5" y="70" width="110" height="50" as="geometry" />
        </mxCell>
        <mxCell id="oMV7Vg-Eyt8YEyAx2Hoa-17" value="&lt;font style=&quot;font-size: 14px;&quot;&gt;1 u=find(nick)&lt;/font&gt;" style="endArrow=none;html=1;endSize=12;startArrow=none;startSize=14;startFill=0;edgeStyle=orthogonalEdgeStyle;align=center;verticalAlign=bottom;endFill=0;rounded=0;entryX=0;entryY=0.5;entryDx=0;entryDy=0;" edge="1" parent="1" target="oMV7Vg-Eyt8YEyAx2Hoa-16">
          <mxGeometry y="3" relative="1" as="geometry">
            <mxPoint x="340.5" y="94.5" as="sourcePoint" />
            <mxPoint x="500.5" y="94.5" as="targetPoint" />
          </mxGeometry>
        </mxCell>
        <mxCell id="oMV7Vg-Eyt8YEyAx2Hoa-18" value="&lt;span style=&quot;font-size: 14px;&quot;&gt;altaUsuario(DTUsuario)&lt;/span&gt;" style="endArrow=none;html=1;endSize=12;startArrow=none;startSize=14;startFill=0;edgeStyle=orthogonalEdgeStyle;align=center;verticalAlign=bottom;endFill=0;rounded=0;" edge="1" parent="1">
          <mxGeometry y="3" relative="1" as="geometry">
            <mxPoint x="10" y="95.5" as="sourcePoint" />
            <mxPoint x="230" y="96" as="targetPoint" />
          </mxGeometry>
        </mxCell>
        <mxCell id="oMV7Vg-Eyt8YEyAx2Hoa-19" value="" style="endArrow=classic;html=1;rounded=0;" edge="1" parent="1">
          <mxGeometry width="50" height="50" relative="1" as="geometry">
            <mxPoint x="390.5" y="69" as="sourcePoint" />
            <mxPoint x="440.5" y="69" as="targetPoint" />
          </mxGeometry>
        </mxCell>
        <mxCell id="oMV7Vg-Eyt8YEyAx2Hoa-22" value="&lt;span style=&quot;font-size: 14px;&quot;&gt;2 [u==null y u es Cliente] us=create(&lt;/span&gt;&lt;span style=&quot;font-size: 14px;&quot;&gt;DTCliiente&lt;/span&gt;&lt;span style=&quot;font-size: 14px;&quot;&gt;)&lt;/span&gt;" style="endArrow=none;html=1;endSize=12;startArrow=none;startSize=14;startFill=0;edgeStyle=orthogonalEdgeStyle;align=center;verticalAlign=bottom;endFill=0;rounded=0;exitX=0.5;exitY=1;exitDx=0;exitDy=0;entryX=0;entryY=0.5;entryDx=0;entryDy=0;" edge="1" parent="1" target="oMV7Vg-Eyt8YEyAx2Hoa-27">
          <mxGeometry x="0.0714" y="5" relative="1" as="geometry">
            <mxPoint x="291.5" y="120" as="sourcePoint" />
            <mxPoint x="800.5" y="185" as="targetPoint" />
            <Array as="points">
              <mxPoint x="292" y="185" />
            </Array>
            <mxPoint as="offset" />
          </mxGeometry>
        </mxCell>
        <mxCell id="oMV7Vg-Eyt8YEyAx2Hoa-23" value=": Vendedor" style="html=1;whiteSpace=wrap;" vertex="1" parent="1">
          <mxGeometry x="630" y="260.0000000000001" width="110" height="50" as="geometry" />
        </mxCell>
        <mxCell id="oMV7Vg-Eyt8YEyAx2Hoa-24" value="&lt;span style=&quot;font-size: 14px;&quot;&gt;3 [u==null y u es Vendedor] us=create(&lt;/span&gt;&lt;span style=&quot;font-size: 14px;&quot;&gt;DTVendedor&lt;/span&gt;&lt;span style=&quot;font-size: 14px;&quot;&gt;)&lt;/span&gt;" style="endArrow=none;html=1;endSize=12;startArrow=none;startSize=14;startFill=0;edgeStyle=orthogonalEdgeStyle;align=center;verticalAlign=bottom;endFill=0;rounded=0;entryX=0;entryY=0.5;entryDx=0;entryDy=0;exitX=0.289;exitY=1.019;exitDx=0;exitDy=0;exitPerimeter=0;" edge="1" parent="1" source="oMV7Vg-Eyt8YEyAx2Hoa-14" target="oMV7Vg-Eyt8YEyAx2Hoa-23">
          <mxGeometry x="0.3603" y="5" relative="1" as="geometry">
            <mxPoint x="260.5" y="123" as="sourcePoint" />
            <mxPoint x="461.5" y="285" as="targetPoint" />
            <Array as="points">
              <mxPoint x="262" y="123" />
              <mxPoint x="262" y="123" />
              <mxPoint x="262" y="285" />
            </Array>
            <mxPoint x="1" as="offset" />
          </mxGeometry>
        </mxCell>
        <mxCell id="oMV7Vg-Eyt8YEyAx2Hoa-25" value="" style="endArrow=classic;html=1;rounded=0;" edge="1" parent="1">
          <mxGeometry width="50" height="50" relative="1" as="geometry">
            <mxPoint x="440" y="310.0000000000001" as="sourcePoint" />
            <mxPoint x="490" y="310.0000000000001" as="targetPoint" />
          </mxGeometry>
        </mxCell>
        <mxCell id="oMV7Vg-Eyt8YEyAx2Hoa-26" value="" style="endArrow=classic;html=1;rounded=0;" edge="1" parent="1">
          <mxGeometry width="50" height="50" relative="1" as="geometry">
            <mxPoint x="440" y="200" as="sourcePoint" />
            <mxPoint x="490" y="200" as="targetPoint" />
          </mxGeometry>
        </mxCell>
        <mxCell id="oMV7Vg-Eyt8YEyAx2Hoa-27" value=": Cliente" style="html=1;whiteSpace=wrap;" vertex="1" parent="1">
          <mxGeometry x="650" y="160" width="110" height="50" as="geometry" />
        </mxCell>
        <mxCell id="oMV7Vg-Eyt8YEyAx2Hoa-28" value="&lt;span style=&quot;font-family: Helvetica; font-size: 14px; font-style: normal; font-variant-ligatures: normal; font-variant-caps: normal; font-weight: 400; letter-spacing: normal; orphans: 2; text-align: center; text-indent: 0px; text-transform: none; widows: 2; word-spacing: 0px; -webkit-text-stroke-width: 0px; white-space: nowrap; text-decoration-thickness: initial; text-decoration-style: initial; text-decoration-color: initial; float: none; display: inline !important;&quot;&gt;&lt;font style=&quot;color: light-dark(rgb(255, 255, 255), rgb(255, 255, 255));&quot;&gt;4 add(us)&lt;/font&gt;&lt;/span&gt;" style="text;whiteSpace=wrap;html=1;" vertex="1" parent="1">
          <mxGeometry x="380.5" y="90" width="120" height="40" as="geometry" />
        </mxCell>
        <mxCell id="Ijm2jkCRQBoB8vIVvI9s-1" value="Si u!=null, se retorna mensaje de error" style="shape=note2;boundedLbl=1;whiteSpace=wrap;html=1;size=25;verticalAlign=top;align=center;" vertex="1" parent="1">
          <mxGeometry x="97.5" y="175" width="72.5" height="95" as="geometry" />
        </mxCell>
        <mxCell id="Ijm2jkCRQBoB8vIVvI9s-2" value="" style="endArrow=none;dashed=1;html=1;rounded=0;entryX=1.057;entryY=0.753;entryDx=0;entryDy=0;entryPerimeter=0;exitX=0.25;exitY=1;exitDx=0;exitDy=0;" edge="1" parent="1" target="Ijm2jkCRQBoB8vIVvI9s-1">
          <mxGeometry width="50" height="50" relative="1" as="geometry">
            <mxPoint x="230.5" y="120" as="sourcePoint" />
            <mxPoint x="232.5" y="45" as="targetPoint" />
          </mxGeometry>
        </mxCell>
        <mxCell id="dxQqE-p7BAg9JbtTTMjk-1" value="Object" style="html=1;whiteSpace=wrap;" vertex="1" parent="1">
          <mxGeometry x="430" y="360" width="110" height="50" as="geometry" />
        </mxCell>
        <mxCell id="dxQqE-p7BAg9JbtTTMjk-2" value=": Usuario" style="html=1;whiteSpace=wrap;" vertex="1" parent="1">
          <mxGeometry x="420" y="350" width="110" height="50" as="geometry" />
        </mxCell>
        <mxCell id="dxQqE-p7BAg9JbtTTMjk-3" value="&lt;span style=&quot;font-size: 14px;&quot;&gt;4 add(us&lt;/span&gt;&lt;span style=&quot;font-size: 14px;&quot;&gt;)&lt;/span&gt;" style="endArrow=none;html=1;endSize=12;startArrow=none;startSize=14;startFill=0;edgeStyle=orthogonalEdgeStyle;align=center;verticalAlign=bottom;endFill=0;rounded=0;" edge="1" parent="1">
          <mxGeometry x="0.5822" y="10" relative="1" as="geometry">
            <mxPoint x="253" y="120" as="sourcePoint" />
            <mxPoint x="420" y="380" as="targetPoint" />
            <Array as="points">
              <mxPoint x="253" y="380" />
            </Array>
            <mxPoint as="offset" />
          </mxGeometry>
        </mxCell>
        <mxCell id="dxQqE-p7BAg9JbtTTMjk-4" value="" style="endArrow=classic;html=1;rounded=0;" edge="1" parent="1">
          <mxGeometry width="50" height="50" relative="1" as="geometry">
            <mxPoint x="310" y="390" as="sourcePoint" />
            <mxPoint x="360" y="390" as="targetPoint" />
          </mxGeometry>
        </mxCell>
        <mxCell id="dxQqE-p7BAg9JbtTTMjk-5" value="&lt;font style=&quot;font-size: 24px;&quot;&gt;&lt;b&gt;Alta de Usuario&lt;/b&gt;&lt;/font&gt;" style="text;html=1;align=center;verticalAlign=middle;resizable=0;points=[];autosize=1;strokeColor=none;fillColor=none;" vertex="1" parent="1">
          <mxGeometry x="314" y="10" width="200" height="40" as="geometry" />
        </mxCell>
      </root>
    </mxGraphModel>
  </diagram>
</mxfile>
